<?xml version="1.0" encoding="UTF-8"?>
<svg xmlns="http://www.w3.org/2000/svg" xmlns:xlink="http://www.w3.org/1999/xlink" width="80pt" height="80pt" viewBox="0 0 80 80" version="1.1">
<g id="surface1">
<path style=" stroke:none;fill-rule:nonzero;fill:#FFFFFF;fill-opacity:1;" d="M 40 77.5 C 19.320313 77.5 2.5 60.679688 2.5 40 C 2.5 19.320313 19.320313 2.5 40 2.5 C 60.679688 2.5 77.5 19.320313 77.5 40 C 77.5 60.679688 60.679688 77.5 40 77.5 Z "/>
<path style=" stroke:none;fill-rule:nonzero;fill:#66798F;fill-opacity:1;" d="M 40 3 C 60.402344 3 77 19.597656 77 40 C 77 60.402344 60.402344 77 40 77 C 19.597656 77 3 60.402344 3 40 C 3 19.597656 19.597656 3 40 3 M 40 2 C 19.011719 2 2 19.011719 2 40 C 2 60.988281 19.011719 78 40 78 C 60.988281 78 78 60.988281 78 40 C 78 19.011719 60.988281 2 40 2 Z "/>
<path style=" stroke:none;fill-rule:nonzero;fill:#E1EBF2;fill-opacity:1;" d="M 66 40 C 66 54.359375 54.359375 66 40 66 C 25.640625 66 14 54.359375 14 40 C 14 25.640625 25.640625 14 40 14 C 54.359375 14 66 25.640625 66 40 Z "/>
<path style=" stroke:none;fill-rule:nonzero;fill:#DCD5F2;fill-opacity:1;" d="M 49.5 65.5 C 48.390625 65.5 47.359375 65.058594 46.597656 64.253906 C 45.835938 63.449219 45.449219 62.398438 45.503906 61.289063 L 45.5 14.511719 C 52.160156 14.773438 57.5 20.277344 57.5 27 L 57.5 43 C 57.5 44.378906 56.378906 45.5 55 45.5 L 52.46875 45.5 L 53.496094 61.296875 C 53.554688 62.398438 53.164063 63.449219 52.402344 64.253906 C 51.640625 65.058594 50.609375 65.5 49.5 65.5 Z "/>
<path style=" stroke:none;fill-rule:nonzero;fill:#8B75A1;fill-opacity:1;" d="M 46 15.039063 C 52.152344 15.550781 57 20.71875 57 27 L 57 43 C 57 44.101563 56.101563 45 55 45 L 51.9375 45 L 52.003906 46.066406 L 52.996094 61.316406 C 53.046875 62.285156 52.707031 63.203125 52.039063 63.910156 C 51.371094 64.613281 50.46875 65 49.5 65 C 48.53125 65 47.628906 64.613281 46.960938 63.910156 C 46.292969 63.203125 45.953125 62.285156 46.003906 61.316406 L 46.007813 61.289063 L 46.007813 61.265625 L 46.003906 46 L 46 45.117188 L 46 15.039063 M 45 14 L 45 46 L 45.003906 46 L 45.007813 61.265625 C 44.871094 63.839844 46.921875 66 49.5 66 C 52.078125 66 54.128906 63.839844 53.992188 61.265625 L 53.003906 46 L 55 46 C 56.65625 46 58 44.65625 58 43 L 58 27 C 58 19.820313 52.179688 14 45 14 Z "/>
<path style=" stroke:none;fill-rule:nonzero;fill:#DCD5F2;fill-opacity:1;" d="M 29.5 65.5 C 28.382813 65.5 27.34375 65.050781 26.578125 64.230469 C 25.8125 63.414063 25.433594 62.351563 25.507813 61.234375 L 26.914063 35.402344 L 26.527344 35.296875 C 24.15625 34.636719 22.5 32.460938 22.5 30 L 22.5 15.5 C 22.5 14.949219 22.949219 14.5 23.5 14.5 C 24.050781 14.5 24.5 14.949219 24.5 15.5 L 24.5 24.5 L 26.5 24.5 L 26.5 15.5 C 26.5 14.949219 26.949219 14.5 27.5 14.5 C 28.050781 14.5 28.5 14.949219 28.5 15.5 L 28.5 24.5 L 30.5 24.5 L 30.5 15.5 C 30.5 14.949219 30.949219 14.5 31.5 14.5 C 32.050781 14.5 32.5 14.949219 32.5 15.5 L 32.5 24.5 L 34.5 24.5 L 34.5 15.5 C 34.5 14.949219 34.949219 14.5 35.5 14.5 C 36.050781 14.5 36.5 14.949219 36.5 15.5 L 36.5 30 C 36.5 32.460938 34.84375 34.636719 32.472656 35.296875 L 32.085938 35.402344 L 33.492188 61.226563 C 33.566406 62.351563 33.183594 63.414063 32.421875 64.230469 C 31.65625 65.050781 30.617188 65.5 29.5 65.5 Z "/>
<path style=" stroke:none;fill-rule:nonzero;fill:#8B75A1;fill-opacity:1;" d="M 35.5 15 C 35.777344 15 36 15.222656 36 15.5 L 36 30 C 36 32.234375 34.492188 34.214844 32.339844 34.8125 L 31.5625 35.027344 L 31.605469 35.832031 L 32.992188 61.269531 C 33.058594 62.246094 32.726563 63.175781 32.054688 63.890625 C 31.386719 64.605469 30.480469 65 29.5 65 C 28.519531 65 27.613281 64.605469 26.945313 63.890625 C 26.273438 63.175781 25.941406 62.242188 26.007813 61.253906 L 27.390625 35.828125 L 27.4375 35.027344 L 26.660156 34.8125 C 24.507813 34.214844 23 32.234375 23 30 L 23 15.5 C 23 15.222656 23.222656 15 23.5 15 C 23.777344 15 24 15.222656 24 15.5 L 24 25 L 27 25 L 27 15.5 C 27 15.222656 27.222656 15 27.5 15 C 27.777344 15 28 15.222656 28 15.5 L 28 25 L 31 25 L 31 15.5 C 31 15.222656 31.222656 15 31.5 15 C 31.777344 15 32 15.222656 32 15.5 L 32 25 L 35 25 L 35 15.5 C 35 15.222656 35.222656 15 35.5 15 M 35.5 14 C 34.671875 14 34 14.671875 34 15.5 L 34 24 L 33 24 L 33 15.5 C 33 14.671875 32.328125 14 31.5 14 C 30.671875 14 30 14.671875 30 15.5 L 30 24 L 29 24 L 29 15.5 C 29 14.671875 28.328125 14 27.5 14 C 26.671875 14 26 14.671875 26 15.5 L 26 24 L 25 24 L 25 15.5 C 25 14.671875 24.328125 14 23.5 14 C 22.671875 14 22 14.671875 22 15.5 L 22 30 C 22 32.757813 23.863281 35.074219 26.394531 35.777344 L 25.011719 61.199219 C 24.835938 63.796875 26.898438 66 29.5 66 C 32.101563 66 34.164063 63.796875 33.988281 61.199219 L 32.605469 35.777344 C 35.136719 35.074219 37 32.757813 37 30 L 37 15.5 C 37 14.671875 36.328125 14 35.5 14 Z "/>
</g>
</svg>
