<?xml version="1.0" encoding="UTF-8"?>
<svg xmlns="http://www.w3.org/2000/svg" xmlns:xlink="http://www.w3.org/1999/xlink" width="50pt" height="50pt" viewBox="0 0 50 50" version="1.1">
<g id="surface1">
<path style=" stroke:none;fill-rule:nonzero;fill:#A9A9A9;fill-opacity:1;" d="M 8.5 7 C 6.570313 7 5 8.570313 5 10.5 C 5 12.429688 6.570313 14 8.5 14 C 10.429688 14 12 12.429688 12 10.5 C 12 8.570313 10.429688 7 8.5 7 Z M 41.5 7 C 39.570313 7 38 8.570313 38 10.5 C 38 12.429688 39.570313 14 41.5 14 C 43.429688 14 45 12.429688 45 10.5 C 45 8.570313 43.429688 7 41.5 7 Z M 8.5 15 C 6.570313 15 5 16.570313 5 18.5 L 5.015625 28.789063 C 5.164063 30.589844 6.691406 32 8.5 32 L 11.46875 32 L 12.21875 27 L 12 27 L 11.996094 18.445313 C 11.769531 16.417969 10.335938 15 8.5 15 Z M 41.5 15 C 39.664063 15 38.230469 16.417969 38.003906 18.445313 L 38 27 L 37.78125 27 L 38.53125 32 L 41.5 32 C 43.308594 32 44.835938 30.589844 44.984375 28.789063 L 45 18.5 C 45 16.570313 43.429688 15 41.5 15 Z M 2.984375 15.984375 C 2.433594 15.996094 1.992188 16.449219 2 17 L 2 31.238281 C 2 31.257813 2 31.277344 2 31.296875 C 2.082031 32.644531 2.847656 33.796875 3.945313 34.445313 L 3.007813 42.890625 C 2.945313 43.4375 3.339844 43.933594 3.890625 43.992188 C 4.4375 44.054688 4.933594 43.660156 4.992188 43.109375 L 5.898438 34.996094 C 5.90625 34.996094 5.917969 35 5.929688 35 L 13.039063 35 L 12.011719 41.851563 C 11.980469 42.078125 12.023438 42.308594 12.136719 42.503906 C 12.339844 42.855469 13.261719 44 16.519531 44 C 18.355469 44 19.398438 43.59375 20 43.230469 L 20 36 C 20 35.449219 20.445313 35 21 35 C 21.554688 35 22 35.449219 22 36 L 22 43.300781 C 22.589844 43.65625 23.53125 44 25 44 C 26.46875 44 27.410156 43.65625 28 43.300781 L 28 38 C 28 37.449219 28.445313 37 29 37 C 29.554688 37 30 37.449219 30 38 L 30 43.191406 C 30.664063 43.558594 31.824219 44 33.566406 44 C 36.398438 44 37.597656 42.824219 37.722656 42.6875 C 37.9375 42.464844 38.035156 42.15625 37.988281 41.851563 L 36.960938 35 L 44.070313 35 C 44.082031 35 44.09375 34.996094 44.105469 34.996094 L 45.003906 43.109375 C 45.066406 43.660156 45.5625 44.054688 46.113281 43.996094 C 46.660156 43.933594 47.054688 43.4375 46.996094 42.890625 L 46.058594 34.445313 C 47.152344 33.796875 47.917969 32.644531 48 31.296875 C 48 31.277344 48 31.257813 48 31.238281 L 48 17 C 48.003906 16.730469 47.898438 16.46875 47.707031 16.277344 C 47.515625 16.085938 47.253906 15.980469 46.984375 15.984375 C 46.433594 15.996094 45.992188 16.449219 46 17 L 46 31.183594 C 45.9375 32.214844 45.101563 33 44.070313 33 L 36.660156 33 L 34.988281 21.851563 C 34.914063 21.363281 34.496094 21 34 21 L 16 21 C 15.503906 21 15.085938 21.363281 15.011719 21.851563 L 13.339844 33 L 5.929688 33 C 4.898438 33 4.0625 32.214844 4 31.183594 L 4 17 C 4.003906 16.730469 3.898438 16.46875 3.707031 16.277344 C 3.515625 16.085938 3.253906 15.980469 2.984375 15.984375 Z "/>
</g>
</svg>
